<svg version="1.1" xmlns="http://www.w3.org/2000/svg" xmlns:xlink="http://www.w3.org/1999/xlink" width="24px" height="24px" viewBox="0 0 1000 1000" enable-background="new 0 0 1000 1000" xml:space="preserve" stroke="white" fill="white">
	<path d="M971,455.7L654.9,139.6c-25.3-25.3-63.2-25.3-88.5,0c-25.3,25.3-25.3,63.2,0,88.5L775,436.8H73.2C38.5,436.8,10,465.2,10,500c0,34.8,28.5,63.2,63.2,63.2H775L566.4,771.9c-25.3,25.3-25.3,63.2,0,88.5c12.6,12.6,28.5,19,44.3,19c15.8,0,31.6-6.3,44.3-19L971,544.3C996.3,519,996.3,481,971,455.7z" />
</svg>